<svg width="200" height="40" viewBox="0 0 200 40" fill="none" xmlns="http://www.w3.org/2000/svg">
<path d="M78.0111 11.5609C79.4468 13.1904 80.1647 15.4313 80.1647 18.2836V30.6594H73.6334V19.0469C73.6334 17.6208 73.2577 16.5069 72.5064 15.7053C71.755 14.9037 70.7556 14.5025 69.5081 14.5017C68.1833 14.5017 67.1328 14.922 66.3567 15.7627C65.5807 16.6034 65.1922 17.7998 65.1914 19.352V30.6582H58.6602V9.34153H65.1914V13.2371C65.7849 11.9843 66.7351 10.9346 67.9229 10.2197C69.132 9.48192 70.5518 9.11302 72.1821 9.11302C74.63 9.11541 76.573 9.93137 78.0111 11.5609ZM104.374 21.1861H89.5925C89.6722 22.7909 90.0798 23.9431 90.8152 24.6426C91.5506 25.3421 92.4926 25.6923 93.6412 25.6931C94.6095 25.6931 95.4119 25.4514 96.0484 24.968C96.6698 24.506 97.1144 23.8453 97.3082 23.0956H104.222C103.954 24.5703 103.324 25.9552 102.388 27.1264C101.427 28.3246 100.198 29.2797 98.7989 29.914C97.3473 30.5888 95.7305 30.9262 93.9486 30.9262C91.8597 30.9262 90.0068 30.4875 88.3901 29.6101C86.7811 28.7391 85.4608 27.4183 84.5902 25.8091C83.6738 24.154 83.2155 22.2186 83.2155 20.0029C83.2155 17.7632 83.6674 15.8218 84.5711 14.1787C85.4385 12.5716 86.7606 11.256 88.3721 10.3968C90.0001 9.5194 91.8589 9.08071 93.9486 9.08071C96.0615 9.08071 97.9204 9.51342 99.5252 10.3788C101.093 11.2094 102.387 12.4765 103.25 14.0267C104.127 15.5932 104.566 17.3947 104.566 19.431C104.56 20.0209 104.496 20.6088 104.374 21.1861ZM96.8368 15.2854C96.0607 14.5843 95.0996 14.2341 93.9534 14.2349C92.757 14.2349 91.764 14.5914 90.9743 15.3045C90.1847 16.0176 89.7352 17.0609 89.626 18.4343H97.9531C97.985 17.0353 97.6109 15.9857 96.8308 15.2854H96.8368ZM125.756 10.3956C127.143 11.273 128.238 12.5336 129.04 14.1775C129.841 15.8214 130.243 17.7628 130.243 20.0017C130.243 22.2174 129.842 24.1529 129.04 25.8079C128.237 27.463 127.143 28.73 125.756 29.6089C124.366 30.4863 122.794 30.925 121.038 30.925C119.409 30.925 118.008 30.5557 116.836 29.8171C115.687 29.1054 114.792 28.0496 114.277 26.7997V36.6008H107.74V9.34153H114.272V13.2C114.787 11.9502 115.683 10.8942 116.831 10.1814C118.002 9.44363 119.403 9.07473 121.033 9.07473C122.79 9.07713 124.363 9.51741 125.75 10.3956H125.756ZM115.557 16.2018C114.68 17.131 114.241 18.3977 114.241 20.0017C114.241 21.5809 114.68 22.8416 115.557 23.7836C116.435 24.7255 117.561 25.1965 118.937 25.1965C120.337 25.1965 121.464 24.7383 122.317 23.8218C123.17 22.9054 123.597 21.632 123.597 20.0017C123.597 18.3729 123.17 17.0999 122.317 16.1827C121.464 15.2654 120.337 14.8068 118.937 14.8068C117.559 14.8068 116.43 15.2718 115.551 16.2018H115.557ZM145.495 25.0446V30.6594H142.553C140.058 30.6594 138.116 30.0416 136.729 28.8061C135.342 27.5706 134.648 25.5271 134.647 22.6757V14.8451H131.776V9.34153H134.647V3.39531H141.179V9.34153H145.457V14.8451H141.179V22.7905C141.179 23.6304 141.351 24.2163 141.694 24.5481C142.038 24.8799 142.618 25.0454 143.433 25.0446H145.495ZM170.426 9.34153V30.6558H163.857V26.7973C163.255 28.0347 162.306 29.0699 161.125 29.7764C159.916 30.5158 158.509 30.8851 156.904 30.8843C154.461 30.8843 152.519 30.0696 151.08 28.44C149.641 26.8105 148.923 24.5696 148.927 21.7173V9.34153H155.42V20.9157C155.42 22.3666 155.795 23.4932 156.547 24.2956C157.298 25.098 158.31 25.4992 159.583 25.4992C160.906 25.4992 161.951 25.0789 162.715 24.2382C163.48 23.3975 163.862 22.2011 163.862 20.6489V9.34153H170.426ZM193.834 11.5609C195.27 13.1904 195.988 15.4313 195.988 18.2836V30.6594H189.457V19.0469C189.457 17.6208 189.081 16.5069 188.33 15.7053C187.578 14.9037 186.579 14.5025 185.331 14.5017C184.007 14.5017 182.957 14.922 182.18 15.7627C181.403 16.6034 181.015 17.7998 181.015 19.352V30.6582H174.483V9.34153H181.015V13.2371C181.608 11.9843 182.558 10.9346 183.746 10.2197C184.955 9.48192 186.374 9.11302 188.005 9.11302C190.45 9.11541 192.393 9.93137 193.834 11.5609Z" fill="#1E3264"/>
<g clip-path="url(#clip0_20170_412239)">
<path d="M21.332 21.3335H39.9962V39.9977L21.332 21.3335ZM30.6438 39.9977V30.6656H21.332L30.6438 39.9977Z" fill="#006EB4"/>
<path d="M0 21.3335V39.9977H18.6642V21.3335H0ZM13.9981 35.3316H4.66605V25.9995H13.9981V35.3316Z" fill="#32C8AA"/>
<path d="M29.311 18.6666H21.332V10.6888C23.4473 10.6911 25.4753 11.5322 26.9711 13.0278C28.467 14.5234 29.3084 16.5513 29.311 18.6666ZM21.332 0.00239336V8.0256C24.1561 8.0256 26.8645 9.14746 28.8614 11.1444C30.8583 13.1413 31.9802 15.8497 31.9802 18.6738H39.9962C39.9975 16.2219 39.5157 13.7939 38.5783 11.5283C37.6409 9.2628 36.2663 7.20414 34.533 5.47C32.7997 3.73585 30.7418 2.3602 28.4767 1.42164C26.2117 0.483081 23.7839 -3.22396e-07 21.332 0V0.00239336Z" fill="#3CA0F0"/>
<path d="M9.3321 4.66724C9.3321 5.5901 9.05844 6.49224 8.54572 7.25956C8.03301 8.02689 7.30427 8.62495 6.45166 8.97811C5.59906 9.33127 4.66087 9.42368 3.75575 9.24364C2.85062 9.0636 2.01922 8.6192 1.36666 7.96664C0.714098 7.31408 0.2697 6.48267 0.0896597 5.57755C-0.0903808 4.67242 0.00201951 3.73423 0.355182 2.88162C0.708344 2.02902 1.3064 1.30028 2.07373 0.787568C2.84106 0.274856 3.74319 0.00119577 4.66605 0.00119577C5.90356 0.00119577 7.09039 0.492796 7.96544 1.36785C8.8405 2.2429 9.3321 3.42973 9.3321 4.66724ZM4.66605 9.33329C3.74319 9.33329 2.84106 9.60695 2.07373 10.1197C1.3064 10.6324 0.708344 11.3611 0.355182 12.2137C0.00201951 13.0663 -0.0903808 14.0045 0.0896597 14.9096C0.2697 15.8148 0.714098 16.6462 1.36666 17.2987C2.01922 17.9513 2.85062 18.3957 3.75575 18.5757C4.66087 18.7558 5.59906 18.6634 6.45166 18.3102C7.30427 17.957 8.03301 17.359 8.54572 16.5917C9.05844 15.8243 9.3321 14.9222 9.3321 13.9993C9.3321 12.7618 8.8405 11.575 7.96544 10.6999C7.09039 9.82489 5.90356 9.33329 4.66605 9.33329ZM13.9981 0.00119577C13.0753 0.00119577 12.1732 0.274856 11.4058 0.787568C10.6385 1.30028 10.0404 2.02902 9.68728 2.88162C9.33412 3.73423 9.24172 4.67242 9.42176 5.57755C9.6018 6.48267 10.0462 7.31408 10.6988 7.96664C11.3513 8.6192 12.1827 9.0636 13.0878 9.24364C13.993 9.42368 14.9312 9.33127 15.7838 8.97811C16.6364 8.62495 17.3651 8.02689 17.8778 7.25956C18.3905 6.49224 18.6642 5.5901 18.6642 4.66724C18.6644 4.05449 18.5438 3.4477 18.3095 2.88153C18.0751 2.31536 17.7316 1.80089 17.2984 1.3675C16.8652 0.934105 16.3509 0.590277 15.7849 0.355641C15.2188 0.121005 14.6121 0.000157096 13.9993 0L13.9981 0.00119577ZM13.9981 9.33329C13.0753 9.33329 12.1732 9.60695 11.4058 10.1197C10.6385 10.6324 10.0404 11.3611 9.68728 12.2137C9.33412 13.0663 9.24172 14.0045 9.42176 14.9096C9.6018 15.8148 10.0462 16.6462 10.6988 17.2987C11.3513 17.9513 12.1827 18.3957 13.0878 18.5757C13.993 18.7558 14.9312 18.6634 15.7838 18.3102C16.6364 17.957 17.3651 17.359 17.8778 16.5917C18.3905 15.8243 18.6642 14.9222 18.6642 13.9993C18.6642 12.762 18.1728 11.5754 17.298 10.7004C16.4232 9.82535 15.2366 9.33361 13.9993 9.33329H13.9981Z" fill="#1E3264"/>
</g>
<defs>
<clipPath id="clip0_20170_412239">
<rect width="39.9965" height="39.9977" fill="white"/>
</clipPath>
</defs>
</svg>
