<svg width="100" height="20" viewBox="0 0 100 20" fill="none" xmlns="http://www.w3.org/2000/svg">
<style type="text/css">
	path{fill-rule:evenodd;clip-rule:evenodd;fill:#fff;}
</style>
<path d="M39.0075 5.78006C39.7254 6.59482 40.0843 7.71527 40.0843 9.14141V15.3293H36.8186V9.52307C36.8186 8.81 36.6308 8.25307 36.2551 7.85226C35.8795 7.45146 35.3797 7.25086 34.756 7.25046C34.0936 7.25046 33.5684 7.46063 33.1803 7.88098C32.7923 8.30132 32.5981 8.89953 32.5977 9.67561V15.3287H29.332V4.67038H32.5977V6.61815C32.8944 5.99174 33.3695 5.4669 33.9634 5.10947C34.568 4.74057 35.2778 4.55612 36.093 4.55612C37.317 4.55732 38.2885 4.96529 39.0075 5.78006ZM52.1891 10.5927H44.7982C44.8381 11.3951 45.0419 11.9712 45.4096 12.3209C45.7773 12.6707 46.2483 12.8457 46.8225 12.8461C47.3067 12.8461 47.7079 12.7253 48.0261 12.4836C48.3369 12.2526 48.5591 11.9223 48.656 11.5474H52.1131C51.9789 12.2847 51.6638 12.9772 51.1961 13.5628C50.7156 14.1619 50.1008 14.6394 49.4014 14.9566C48.6756 15.294 47.8672 15.4627 46.9763 15.4627C45.9318 15.4627 45.0054 15.2434 44.197 14.8047C43.3925 14.3692 42.7323 13.7088 42.2971 12.9042C41.8388 12.0766 41.6097 11.1089 41.6097 10.001C41.6097 8.88119 41.8356 7.91049 42.2875 7.08895C42.7212 6.28539 43.3823 5.62762 44.188 5.198C45.002 4.75931 45.9314 4.53997 46.9763 4.53997C48.0327 4.53997 48.9621 4.75632 49.7645 5.18903C50.5485 5.60433 51.1953 6.23785 51.6268 7.01297C52.0655 7.79623 52.2848 8.69694 52.2848 9.7151C52.2819 10.0101 52.2498 10.304 52.1891 10.5927V10.5927ZM48.4204 7.64229C48.0323 7.29174 47.5518 7.11666 46.9787 7.11706C46.3805 7.11706 45.8839 7.29533 45.4891 7.65186C45.0943 8.0084 44.8696 8.53004 44.8149 9.21678H48.9785C48.9944 8.51728 48.8074 7.99244 48.4174 7.64229H48.4204ZM62.8797 5.1974C63.5736 5.63609 64.121 6.2664 64.5218 7.08835C64.9226 7.91029 65.1232 8.88099 65.1236 10.0004C65.1236 11.1083 64.923 12.076 64.5218 12.9036C64.1206 13.7311 63.5733 14.3646 62.8797 14.8041C62.185 15.2428 61.3988 15.4621 60.521 15.4621C59.7062 15.4621 59.0059 15.2775 58.4201 14.9082C57.8455 14.5523 57.3978 14.0244 57.1405 13.3995V18.3H53.8719V4.67038H57.1381V6.59961C57.3957 5.97471 57.8433 5.44669 58.4177 5.09032C59.0031 4.72143 59.7034 4.53698 60.5186 4.53698C61.3972 4.53817 62.1832 4.75831 62.8767 5.1974H62.8797ZM57.7806 8.10052C57.3419 8.56513 57.1225 9.19844 57.1225 10.0004C57.1225 10.7901 57.3419 11.4204 57.7806 11.8914C58.2193 12.3624 58.7826 12.5979 59.4705 12.5979C60.1704 12.5979 60.7337 12.3688 61.1605 11.9105C61.5872 11.4523 61.8005 10.8156 61.8005 10.0004C61.8005 9.18607 61.5872 8.54958 61.1605 8.09095C60.7337 7.63232 60.1704 7.40301 59.4705 7.40301C58.7814 7.40301 58.2171 7.63551 57.7776 8.10052H57.7806ZM72.7496 12.5219V15.3293H71.2786C70.0307 15.3293 69.06 15.0204 68.3665 14.4027C67.673 13.7849 67.326 12.7632 67.3256 11.3374V7.42215H65.8899V4.67038H67.3256V1.69727H70.5913V4.67038H72.7305V7.42215H70.5913V11.3949C70.5913 11.8148 70.6772 12.1077 70.8491 12.2736C71.021 12.4395 71.3107 12.5223 71.7183 12.5219H72.7496ZM85.2152 4.67038V15.3275H81.9304V13.3983C81.6295 14.0169 81.1549 14.5346 80.5646 14.8878C79.9601 15.2575 79.2566 15.4422 78.4542 15.4418C77.2322 15.4418 76.2615 15.0344 75.5421 14.2196C74.8226 13.4049 74.4637 12.2844 74.4653 10.8583V4.67038H77.7118V10.4575C77.7118 11.1829 77.8996 11.7462 78.2753 12.1474C78.651 12.5486 79.1571 12.7492 79.7936 12.7492C80.4552 12.7492 80.9772 12.5391 81.3597 12.1187C81.7421 11.6984 81.9332 11.1002 81.9328 10.3241V4.67038H85.2152ZM96.9192 5.78006C97.637 6.59482 97.9959 7.71527 97.9959 9.14141V15.3293H94.7303V9.52307C94.7303 8.81 94.5425 8.25307 94.1668 7.85226C93.7911 7.45146 93.2914 7.25086 92.6677 7.25046C92.0056 7.25046 91.4804 7.46063 91.092 7.88098C90.7035 8.30132 90.5093 8.89953 90.5093 9.67561V15.3287H87.2437V4.67038H90.5093V6.61815C90.8061 5.99174 91.2812 5.4669 91.875 5.10947C92.4792 4.74057 93.1891 4.55612 94.0047 4.55612C95.227 4.55732 96.1985 4.96529 96.9192 5.78006Z" fill="#1E3264"/>
<g clip-path="url(#clip0_20171_640176)">
<path d="M10.666 10.666H19.9981V19.9981L10.666 10.666ZM15.3219 19.9981V15.3321H10.666L15.3219 19.9981Z" fill="#006EB4"/>
<path d="M0 10.666V19.9981H9.3321V10.666H0ZM6.99907 17.6651H2.33302V12.999H6.99907V17.6651Z" fill="#32C8AA"/>
<path d="M14.6555 9.33329H10.666V5.34442C11.7236 5.34553 12.7376 5.76612 13.4856 6.51392C14.2335 7.26172 14.6542 8.27566 14.6555 9.33329ZM10.666 0.00119668V4.0128C12.0781 4.0128 13.4323 4.57373 14.4307 5.57219C15.4292 6.57065 15.9901 7.92485 15.9901 9.33688H19.9981C19.9987 8.11097 19.7578 6.89695 19.2891 5.76417C18.8204 4.6314 18.1331 3.60207 17.2665 2.735C16.3999 1.86793 15.3709 1.1801 14.2384 0.710821C13.1058 0.24154 11.8919 -1.61198e-07 10.666 0V0.00119668Z" fill="#3CA0F0"/>
<path d="M4.66605 2.33362C4.66605 2.79505 4.52922 3.24612 4.27286 3.62978C4.01651 4.01345 3.65214 4.31247 3.22583 4.48906C2.79953 4.66564 2.33044 4.71184 1.87787 4.62182C1.42531 4.5318 1.00961 4.3096 0.683328 3.98332C0.357049 3.65704 0.13485 3.24134 0.0448298 2.78877C-0.0451904 2.33621 0.00100975 1.86712 0.177591 1.44081C0.354172 1.01451 0.653202 0.65014 1.03687 0.393784C1.42053 0.137428 1.8716 0.000597883 2.33302 0.000597883C2.95178 0.000597883 3.54519 0.246398 3.98272 0.683925C4.42025 1.12145 4.66605 1.71487 4.66605 2.33362ZM2.33302 4.66665C1.8716 4.66665 1.42053 4.80348 1.03687 5.05983C0.653202 5.31619 0.354172 5.68056 0.177591 6.10686C0.00100975 6.53316 -0.0451904 7.00226 0.0448298 7.45482C0.13485 7.90738 0.357049 8.32309 0.683328 8.64937C1.00961 8.97565 1.42531 9.19785 1.87787 9.28787C2.33044 9.37789 2.79953 9.33169 3.22583 9.1551C3.65214 8.97852 4.01651 8.67949 4.27286 8.29583C4.52922 7.91216 4.66605 7.4611 4.66605 6.99967C4.66605 6.38091 4.42025 5.7875 3.98272 5.34997C3.54519 4.91245 2.95178 4.66665 2.33302 4.66665ZM6.99907 0.000597883C6.53764 0.000597883 6.08658 0.137428 5.70291 0.393784C5.31925 0.65014 5.02022 1.01451 4.84364 1.44081C4.66706 1.86712 4.62086 2.33621 4.71088 2.78877C4.8009 3.24134 5.0231 3.65704 5.34938 3.98332C5.67566 4.3096 6.09136 4.5318 6.54392 4.62182C6.99648 4.71184 7.46558 4.66564 7.89188 4.48906C8.31818 4.31247 8.68256 4.01345 8.93891 3.62978C9.19527 3.24612 9.3321 2.79505 9.3321 2.33362C9.33218 2.02724 9.27191 1.72385 9.15473 1.44077C9.03756 1.15768 8.86578 0.900446 8.64919 0.68375C8.43261 0.467053 8.17546 0.295138 7.89244 0.17782C7.60941 0.0605023 7.30605 7.85482e-05 6.99967 0L6.99907 0.000597883ZM6.99907 4.66665C6.53764 4.66665 6.08658 4.80348 5.70291 5.05983C5.31925 5.31619 5.02022 5.68056 4.84364 6.10686C4.66706 6.53316 4.62086 7.00226 4.71088 7.45482C4.8009 7.90738 5.0231 8.32309 5.34938 8.64937C5.67566 8.97565 6.09136 9.19785 6.54392 9.28787C6.99648 9.37789 7.46558 9.33169 7.89188 9.1551C8.31818 8.97852 8.68256 8.67949 8.93891 8.29583C9.19527 7.91216 9.3321 7.4611 9.3321 6.99967C9.3321 6.38102 9.08638 5.7877 8.64898 5.35019C8.21158 4.91268 7.61832 4.6668 6.99967 4.66665H6.99907Z" fill="#1E3264"/>
</g>
<defs>
<clipPath id="clip0_20171_640176">
<rect width="19.9982" height="19.9988" fill="white"/>
</clipPath>
</defs>
</svg>
