<svg width="40" height="40" viewBox="0 0 40 40" fill="none" xmlns="http://www.w3.org/2000/svg">
<g clip-path="url(#clip0_20170_412239)">
<path d="M21.332 21.3335H39.9962V39.9977L21.332 21.3335ZM30.6438 39.9977V30.6656H21.332L30.6438 39.9977Z" fill="#006EB4"/>
<path d="M0 21.3335V39.9977H18.6642V21.3335H0ZM13.9981 35.3316H4.66605V25.9995H13.9981V35.3316Z" fill="#32C8AA"/>
<path d="M29.311 18.6666H21.332V10.6888C23.4473 10.6911 25.4753 11.5322 26.9711 13.0278C28.467 14.5234 29.3084 16.5513 29.311 18.6666ZM21.332 0.00239336V8.0256C24.1561 8.0256 26.8645 9.14746 28.8614 11.1444C30.8583 13.1413 31.9802 15.8497 31.9802 18.6738H39.9962C39.9975 16.2219 39.5157 13.7939 38.5783 11.5283C37.6409 9.2628 36.2663 7.20414 34.533 5.47C32.7997 3.73585 30.7418 2.3602 28.4767 1.42164C26.2117 0.483081 23.7839 -3.22396e-07 21.332 0V0.00239336Z" fill="#3CA0F0"/>
<path d="M9.3321 4.66724C9.3321 5.5901 9.05844 6.49224 8.54572 7.25956C8.03301 8.02689 7.30427 8.62495 6.45166 8.97811C5.59906 9.33127 4.66087 9.42368 3.75575 9.24364C2.85062 9.0636 2.01922 8.6192 1.36666 7.96664C0.714098 7.31408 0.2697 6.48267 0.0896597 5.57755C-0.0903808 4.67242 0.00201951 3.73423 0.355182 2.88162C0.708344 2.02902 1.3064 1.30028 2.07373 0.787568C2.84106 0.274856 3.74319 0.00119577 4.66605 0.00119577C5.90356 0.00119577 7.09039 0.492796 7.96544 1.36785C8.8405 2.2429 9.3321 3.42973 9.3321 4.66724ZM4.66605 9.33329C3.74319 9.33329 2.84106 9.60695 2.07373 10.1197C1.3064 10.6324 0.708344 11.3611 0.355182 12.2137C0.00201951 13.0663 -0.0903808 14.0045 0.0896597 14.9096C0.2697 15.8148 0.714098 16.6462 1.36666 17.2987C2.01922 17.9513 2.85062 18.3957 3.75575 18.5757C4.66087 18.7558 5.59906 18.6634 6.45166 18.3102C7.30427 17.957 8.03301 17.359 8.54572 16.5917C9.05844 15.8243 9.3321 14.9222 9.3321 13.9993C9.3321 12.7618 8.8405 11.575 7.96544 10.6999C7.09039 9.82489 5.90356 9.33329 4.66605 9.33329ZM13.9981 0.00119577C13.0753 0.00119577 12.1732 0.274856 11.4058 0.787568C10.6385 1.30028 10.0404 2.02902 9.68728 2.88162C9.33412 3.73423 9.24172 4.67242 9.42176 5.57755C9.6018 6.48267 10.0462 7.31408 10.6988 7.96664C11.3513 8.6192 12.1827 9.0636 13.0878 9.24364C13.993 9.42368 14.9312 9.33127 15.7838 8.97811C16.6364 8.62495 17.3651 8.02689 17.8778 7.25956C18.3905 6.49224 18.6642 5.5901 18.6642 4.66724C18.6644 4.05449 18.5438 3.4477 18.3095 2.88153C18.0751 2.31536 17.7316 1.80089 17.2984 1.3675C16.8652 0.934105 16.3509 0.590277 15.7849 0.355641C15.2188 0.121005 14.6121 0.000157096 13.9993 0L13.9981 0.00119577ZM13.9981 9.33329C13.0753 9.33329 12.1732 9.60695 11.4058 10.1197C10.6385 10.6324 10.0404 11.3611 9.68728 12.2137C9.33412 13.0663 9.24172 14.0045 9.42176 14.9096C9.6018 15.8148 10.0462 16.6462 10.6988 17.2987C11.3513 17.9513 12.1827 18.3957 13.0878 18.5757C13.993 18.7558 14.9312 18.6634 15.7838 18.3102C16.6364 17.957 17.3651 17.359 17.8778 16.5917C18.3905 15.8243 18.6642 14.9222 18.6642 13.9993C18.6642 12.762 18.1728 11.5754 17.298 10.7004C16.4232 9.82535 15.2366 9.33361 13.9993 9.33329H13.9981Z" fill="#1E3264"/>
</g>
<defs>
<clipPath id="clip0_20170_412239">
<rect width="39.9965" height="39.9977" fill="white"/>
</clipPath>
</defs>
</svg>
